<?xml version="1.0" encoding="utf-8"?>
<!-- Generator: Adobe Illustrator 22.1.0, SVG Export Plug-In . SVG Version: 6.00 Build 0)  -->
<svg version="1.1" xmlns="http://www.w3.org/2000/svg" xmlns:xlink="http://www.w3.org/1999/xlink" x="0px" y="0px"
	 viewBox="0 0 500 500" style="enable-background:new 0 0 500 500;" xml:space="preserve">
<style type="text/css">
	.st0{fill:#82CFBE;}
	.st1{fill:#487687;}
	.st2{fill:#FFFFFF;}
	.st3{fill:#BAEFFF;}
	.st4{fill:#89C3D9;}
	.st5{fill:#6590A1;}
	.st6{opacity:0.4;fill:#FFFFFF;}
	.st7{fill:#FFE480;}
	.st8{fill:#DBC46E;}
	.st9{fill:#FFC7AD;}
	.st10{fill:#4A6975;}
	.st11{fill:#72A2B5;}
	.st12{fill:#9DDED0;}
	.st13{fill:#003352;}
	.st14{fill:#FF549A;}
	.st15{fill:#BD3E72;}
	.st16{fill:#00629C;}
	.st17{fill:#568CA1;}
	.st18{fill:#FFFFFF;stroke:#000000;stroke-width:0.7127;stroke-miterlimit:10;}
	.st19{fill:#5B9DB5;}
	.st20{fill:#A0DCF0;}
	.st21{fill:#C7B05A;}
	.st22{fill:#F9FBFC;}
</style>
<g id="BACKGROUND">
	<g>
		<path class="st0" d="M286.3,406.2l127.2-73.4c5-2.9,12.6-3.2,17-0.7l1.7,1c4.3,2.5,3.8,6.9-1.2,9.8l-127.2,73.4
			c-5,2.9-12.6,3.2-17,0.7l-1.7-1C280.8,413.5,281.3,409.1,286.3,406.2z"/>
		<path class="st0" d="M444.6,314.8l19.6-11.3c5-2.9,12.6-3.2,17-0.7l1.7,1c4.3,2.5,3.8,6.9-1.2,9.8L462,324.9
			c-5,2.9-12.6,3.2-17,0.7l-1.7-1C439,322.2,439.6,317.7,444.6,314.8z"/>
		<path class="st0" d="M324.1,424.7l137.7-79.5c5-2.9,12.6-3.2,17-0.7l1.7,1c4.3,2.5,3.8,6.9-1.2,9.8l-137.7,79.5
			c-5,2.9-12.6,3.2-17,0.7l-1.7-1C318.6,432,319.1,427.6,324.1,424.7z"/>
		<path class="st0" d="M287.1,446l4.9-2.8c5-2.9,12.6-3.2,17-0.7l1.7,1c4.3,2.5,3.8,6.9-1.2,9.8l-4.9,2.8c-5,2.9-12.6,3.2-17,0.7
			l-1.7-1C281.6,453.3,282.1,448.9,287.1,446z"/>
		<path class="st0" d="M442.2,236.4l4.9-2.8c5-2.9,12.6-3.2,17-0.7l1.7,1c4.3,2.5,3.8,6.9-1.2,9.8l-4.9,2.8c-5,2.9-12.6,3.2-17,0.7
			l-1.7-1C436.6,243.7,437.2,239.3,442.2,236.4z"/>
		<path class="st0" d="M223.7,402.1l2.1-1.2c4.5-2.6,12.2-2.5,16.9,0.3l0,0c4.8,2.8,5,7.2,0.5,9.8l-2.1,1.2
			c-4.5,2.6-12.2,2.5-16.9-0.3l0,0C219.4,409.1,219.2,404.7,223.7,402.1z"/>
		<path class="st0" d="M238.3,433.9l22.2-12.8c4.5-2.6,12.2-2.5,16.9,0.3l0,0c4.8,2.8,5,7.2,0.5,9.8L255.8,444
			c-4.5,2.6-12.2,2.5-16.9-0.3l0,0C234,440.9,233.8,436.5,238.3,433.9z"/>
		<path class="st0" d="M145.9,407.5L261.6,340c4.5-2.6,12.2-2.5,16.9,0.3l0,0c4.8,2.8,5,7.2,0.5,9.8l-115.7,67.6
			c-4.5,2.6-12.2,2.5-16.9-0.3l0,0C141.6,414.6,141.4,410.2,145.9,407.5z"/>
		<path class="st0" d="M430.7,343l-84.3,48.7c4.5-2.6,12.2-2.5,16.9,0.3l0,0c4.8,2.8,5,7.2,0.5,9.8l84.3-48.7
			c-4.5,2.6-12.2,2.5-16.9-0.3h0C426.4,350,426.2,345.6,430.7,343z"/>
		<path class="st0" d="M372,296.3l-63.4,36.6c4.5-2.6,12.2-2.5,16.9,0.3l0,0c4.8,2.8,5,7.2,0.5,9.8l63.4-36.6
			c-4.5,2.6-12.2,2.5-16.9-0.3l0,0C367.7,303.4,367.5,298.9,372,296.3z"/>
		<path class="st0" d="M249.6,387.2l208.3-120.3c4.5-2.6,12.2-2.5,16.9,0.3l0,0c4.8,2.8,5,7.2,0.5,9.8L267,397.2
			c-4.5,2.6-12.2,2.5-16.9-0.3l0,0C245.3,394.2,245.1,389.8,249.6,387.2z"/>
		<path class="st0" d="M236.8,354.3l171.8-98.5c4.5-2.6,12.2-2.5,16.9,0.3l0,0c4.8,2.8,5,7.2,0.5,9.8l-171.8,98.5
			c-4.5,2.6-12.2,2.5-16.9-0.3l0,0C232.5,361.3,232.3,356.9,236.8,354.3z"/>
		<path class="st0" d="M395.3,323.2l-88.9,51.3c4.5-2.6,12.2-2.5,16.9,0.3l0,0c4.8,2.8,5,7.2,0.5,9.8l88.9-51.3
			c-4.5,2.6-12.2,2.5-16.9-0.3l0,0C391,330.2,390.7,325.8,395.3,323.2z"/>
		<path class="st0" d="M277.8,350.7l-45.6,26.3c4.5-2.6,12.2-2.5,16.9,0.3l0,0c4.8,2.8,5,7.2,0.5,9.8l45.6-26.3
			c-4.5,2.6-12.2,2.5-16.9-0.3l0,0C273.5,357.7,273.3,353.3,277.8,350.7z"/>
		<path class="st0" d="M338.9,396l-28.2,16.3c4.5-2.6,12.2-2.5,16.9,0.3h0c4.8,2.8,5,7.2,0.5,9.8l28.2-16.3
			c-4.5,2.6-12.2,2.5-16.9-0.3l0,0C334.6,403,334.3,398.6,338.9,396z"/>
		<path class="st0" d="M58.9,305.4l222.7-127.9c4.7-2.7,11.9-3,16-0.7l1.6,0.9c4.1,2.4,3.6,6.5-1.1,9.2L75.3,314.8
			c-4.7,2.7-11.9,3-16,0.7l-1.6-0.9C53.7,312.2,54.2,308.1,58.9,305.4z"/>
		<path class="st0" d="M310.8,160.6l18.4-10.6c4.7-2.7,11.9-3,16-0.7l1.6,0.9c4.1,2.4,3.6,6.5-1.1,9.2l-18.4,10.6
			c-4.7,2.7-11.9,3-16,0.7l-1.6-0.9C305.6,167.5,306.1,163.3,310.8,160.6z"/>
		<path class="st0" d="M94.4,322.7l232.6-133.6c4.7-2.7,11.9-3,16-0.7l1.6,0.9c4.1,2.4,3.6,6.5-1.1,9.2L110.8,332.2
			c-4.7,2.7-11.9,3-16,0.7l-1.6-0.9C89.2,329.6,89.7,325.4,94.4,322.7z"/>
		<path class="st0" d="M63.9,340.4l4.6-2.6c4.7-2.7,11.9-3,16-0.7L86,338c4.1,2.4,3.6,6.5-1.1,9.2l-4.6,2.6c-4.7,2.7-11.9,3-16,0.7
			l-1.6-0.9C58.7,347.2,59.2,343.1,63.9,340.4z"/>
		<path class="st0" d="M350.9,175.3l0.9-0.5c4.7-2.7,11.9-3,16-0.7l1.6,0.9c4.1,2.4,3.6,6.5-1.1,9.2l-0.9,0.5
			c-4.7,2.7-11.9,3-16,0.7l-1.6-0.9C345.7,182.2,346.2,178.1,350.9,175.3z"/>
		<path class="st0" d="M17.3,291.5l2-1.1c4.3-2.5,11.4-2.3,15.9,0.3l0,0c4.5,2.6,4.7,6.7,0.5,9.2l-2,1.1c-4.3,2.5-11.4,2.3-15.9-0.3
			l0,0C13.3,298.1,13.1,293.9,17.3,291.5z"/>
		<path class="st0" d="M293.8,95.3l2-1.1c4.3-2.5,11.4-2.3,15.9,0.3l0,0c4.5,2.6,4.7,6.7,0.5,9.2l-2,1.1c-4.3,2.5-11.4,2.3-15.9-0.3
			l0,0C289.8,101.9,289.6,97.8,293.8,95.3z"/>
		<path class="st0" d="M365.7,128.5l2-1.1c4.3-2.5,11.4-2.3,15.9,0.3l0,0c4.5,2.6,4.7,6.7,0.5,9.2l-2,1.1
			c-4.3,2.5-11.4,2.3-15.9-0.3l0,0C361.6,135.1,361.4,131,365.7,128.5z"/>
		<path class="st0" d="M25,324.4l10-5.2c4.3-2.5,11.4-2.3,15.9,0.3l0,0c4.5,2.6,4.7,6.7,0.5,9.2l-10,5.2c-4.3,2.5-11.4,2.3-15.9-0.3
			l0,0C21,331,20.7,326.9,25,324.4z"/>
		<path class="st0" d="M289.9,134.8l40.4-23.3c4.3-2.5,11.4-2.3,15.9,0.3l0,0c4.5,2.6,4.7,6.7,0.5,9.2l-40.4,23.3
			c-4.3,2.5-11.4,2.3-15.9-0.3l0,0C285.9,141.4,285.7,137.2,289.9,134.8z"/>
		<path class="st0" d="M297.8,187.1l-129.8,74.3c4.3-2.5,11.4-2.3,15.9,0.3v0c4.5,2.6,4.7,6.7,0.5,9.2l129.8-74.3
			c-4.3,2.5-11.4,2.3-15.9-0.3l0,0C293.7,193.7,293.5,189.5,297.8,187.1z"/>
		<path class="st0" d="M339,201.2l-129.8,74.3c4.3-2.5,11.4-2.3,15.9,0.3l0,0c4.5,2.6,4.7,6.7,0.5,9.2l129.8-74.3
			c-4.3,2.5-11.4,2.3-15.9-0.3l0,0C334.9,207.8,334.7,203.6,339,201.2z"/>
		<path class="st0" d="M242.5,143.2l-129.8,74.3c4.3-2.5,11.4-2.3,15.9,0.3l0,0c4.5,2.6,3.8,7.6-0.5,10l130.8-75.1
			c-4.3,2.5-11.4,2.3-15.9-0.3l0,0C238.5,149.8,238.3,145.7,242.5,143.2z"/>
		<path class="st0" d="M41.7,277.4l218.2-125.3c4.3-2.5,11.4-2.3,15.9,0.3l0,0c4.5,2.6,4.7,6.7,0.5,9.2L58.1,286.9
			c-4.3,2.5-11.4,2.3-15.9-0.3l0,0C37.6,284,37.4,279.9,41.7,277.4z"/>
		<path class="st0" d="M95.5,208.5l169.6-97.2c4.3-2.5,11.4-2.3,15.9,0.3l0,0c4.5,2.6,4.7,6.7,0.5,9.2l-169.6,97.2
			c-4.3,2.5-11.4,2.3-15.9-0.3l0,0C91.4,215.1,91.2,210.9,95.5,208.5z"/>
		<path class="st0" d="M264.4,168.5L58.1,286.9c4.3-2.5,11.4-2.3,15.9,0.3l0,0c4.5,2.6,4.7,6.7,0.5,9.2l206.3-118.4
			c-4.3,2.5-11.4,2.3-15.9-0.3h0C260.4,175.1,260.2,170.9,264.4,168.5z"/>
		<path class="st0" d="M108.3,295.8l-26.5,15.3c4.3-2.5,11.4-2.3,15.9,0.3l0,0c4.5,2.6,4.7,6.7,0.5,9.2l26.5-15.3
			c-4.3,2.5-11.4,2.3-15.9-0.3l0,0C104.3,302.4,104.1,298.2,108.3,295.8z"/>
		<path class="st0" d="M178.9,292.9l-26.5,15.3c4.3-2.5,11.4-2.3,15.9,0.3h0c4.5,2.6,4.7,6.7,0.5,9.2l26.5-15.3
			c-4.3,2.5-11.4,2.3-15.9-0.3h0C174.9,299.5,174.7,295.3,178.9,292.9z"/>
		<path class="st0" d="M154.4,307.1l-26.5,15.3c4.3-2.5,11.4-2.3,15.9,0.3l0,0c4.5,2.6,2.9,8.3-1.4,10.7l28.3-16.8
			c-4.3,2.5-11.4,2.3-15.9-0.3l0,0C150.3,313.7,150.1,309.5,154.4,307.1z"/>
		<path class="st0" d="M384.3,231.8l18.4-10.6c4.7-2.7,11.9-3,16-0.7l1.6,0.9c4.1,2.4,3.6,6.5-1.1,9.2l-18.4,10.6
			c-4.7,2.7-11.9,3-16,0.7l-1.6-0.9C379.1,238.7,379.6,234.6,384.3,231.8z"/>
		<path class="st0" d="M389.5,191l34.1-19.7c4.5-2.6,11.9-2.6,16.4,0l0,0c4.5,2.6,4.5,6.9,0,9.5l-34.1,19.7
			c-4.5,2.6-11.9,2.6-16.4,0l0,0C385,197.8,385,193.6,389.5,191z"/>
		<path class="st0" d="M55.7,383.8l14-8.1c4.7-2.7,11.9-3,16-0.7l1.6,0.9c4.1,2.4,3.6,6.5-1.1,9.2l-14,8.1c-4.7,2.7-11.9,3-16,0.7
			l-1.6-0.9C50.4,390.7,51,386.5,55.7,383.8z"/>
		<path class="st0" d="M105.4,393l2-1.1c4.3-2.5,11.4-2.3,15.9,0.3l0,0c4.5,2.6,4.7,6.7,0.5,9.2l-2,1.1c-4.3,2.5-11.4,2.3-15.9-0.3
			l0,0C101.4,399.6,101.1,395.4,105.4,393z"/>
		<path class="st0" d="M94.3,361.5l103.9-60.8c4.3-2.5,11.4-2.3,15.9,0.3l0,0c4.5,2.6,4.7,6.7,0.5,9.2l-103.9,60.8
			c-4.3,2.5-11.4,2.3-15.9-0.3l0,0C90.3,368.1,90.1,363.9,94.3,361.5z"/>
		<path class="st0" d="M341.8,237.4l-99.3,56.6c4.3-2.5,11.4-2.3,15.9,0.3l0,0c4.5,2.6,3,8.5-1.2,10.9l101-58.4
			c-4.3,2.5-11.4,2.3-15.9-0.3l0,0C337.8,244,337.6,239.9,341.8,237.4z"/>
		<path class="st0" d="M376.2,255.6L146.4,388.3c4.3-2.5,11.4-2.3,15.9,0.3l0,0c4.5,2.6,4.7,6.7,0.5,9.2L392.6,265
			c-4.3,2.5-11.4,2.3-15.9-0.3l0,0C372.1,262.2,371.9,258,376.2,255.6z"/>
		<path class="st0" d="M129.7,378.9l229.4-132.5c4.3-2.5,11.4-2.3,15.9,0.3l0,0c4.5,2.6,4.7,6.7,0.5,9.2L146.2,388.4
			c-4.3,2.5-11.4,2.3-15.9-0.3l0,0C125.7,385.5,125.5,381.4,129.7,378.9z"/>
		<path class="st0" d="M225.3,285.1l139.1-79.6c4.3-2.5,11.4-2.3,15.9,0.3l0,0c4.5,2.6,4.7,6.7,0.5,9.2l-139.1,79.6
			c-4.3,2.5-11.4,2.3-15.9-0.3l0,0C221.2,291.7,221,287.5,225.3,285.1z"/>
		<path class="st0" d="M213.5,310.8l-100.1,58.6c4.3-2.5,11.4-2.3,15.9,0.3l0,0c4.5,2.6,4.7,6.7,0.5,9.2l102.4-58.6
			c-4.3,2.5-13.7,2.3-18.3-0.3l0,0C209.4,317.4,209.2,313.3,213.5,310.8z"/>
	</g>
</g>
<g id="OBJECTS">
	<path class="st0" d="M387.5,300.8l19.6-11.6c7.7-4.5,6.8-12.3-2.2-17.5l-54.8-31.6c-8.9-5.2-22.6-5.7-30.3-1.3l-19.6,11.6
		c-7.7,4.5-6.8,12.3,2.2,17.5l54.8,31.6C366.1,304.7,379.8,305.3,387.5,300.8z"/>
	<g>
		<g>
			<path class="st1" d="M409.4,278.8v-4.4c0,0,0,0,0,0v-0.5h0c-0.1-3.2-2.5-6.5-7-9.1l-52-30c-8.5-4.9-21.4-5.4-28.8-1.2l-18.6,11
				c-3.4,2-5,4.6-4.9,7.4l0,0v4.7l0,0c0,3.3,2.4,6.7,7,9.4l52,30c8.5,4.9,21.4,5.4,28.8,1.2l18.6-11
				C407.9,284.3,409.5,281.6,409.4,278.8L409.4,278.8z"/>
			<path class="st2" d="M385.8,292.2l18.6-11c7.3-4.2,6.4-11.7-2.1-16.6l-52-30c-8.5-4.9-21.4-5.4-28.8-1.2l-18.6,11
				c-7.3,4.2-6.4,11.7,2.1,16.6l52,30C365.5,295.9,378.4,296.5,385.8,292.2z"/>
			<g>
				<polygon class="st3" points="343.9,256.2 318.2,241.4 318.2,192.3 343.9,207.1 				"/>
				<polygon class="st4" points="343.9,256.2 349.9,252.7 349.9,203.6 343.9,207.1 				"/>
			</g>
			<g>
				<polygon class="st3" points="388.1,282.9 362.4,268.1 362.4,219 388.1,233.8 				"/>
				<polygon class="st4" points="388.1,282.9 394.1,279.4 394.1,230.3 388.1,233.8 				"/>
			</g>
			<g>
				<g>
					<polygon class="st2" points="451.8,286.1 262.5,176.8 262.5,37.1 451.8,146.4 					"/>
					<polygon class="st3" points="451.8,273.8 262.5,164.5 262.5,46.6 451.8,155.9 					"/>
					<path class="st3" d="M445.4,276c0,1.7-1.2,2.4-2.7,1.6c-1.5-0.9-2.7-3-2.7-4.7c0-1.7,1.2-2.4,2.7-1.6
						C444.2,272.2,445.4,274.3,445.4,276z"/>
					<path class="st4" d="M435.8,270.5c0,0.7-0.5,1-1.1,0.7c-0.6-0.4-1.1-1.3-1.1-2c0-0.7,0.5-1,1.1-0.7
						C435.3,268.9,435.8,269.8,435.8,270.5z"/>
					<path class="st4" d="M429.8,267c0,0.7-0.5,1-1.1,0.7c-0.6-0.4-1.1-1.3-1.1-2c0-0.7,0.5-1,1.1-0.7
						C429.3,265.4,429.8,266.3,429.8,267z"/>
					<path class="st4" d="M423.7,263.5c0,0.7-0.5,1-1.1,0.7c-0.6-0.4-1.1-1.3-1.1-2c0-0.7,0.5-1,1.1-0.7
						C423.2,261.9,423.7,262.8,423.7,263.5z"/>
					<path class="st4" d="M359.4,97.6c0,1.4-1,2-2.2,1.3c-1.2-0.7-2.2-2.4-2.2-3.8c0-1.4,1-2,2.2-1.3
						C358.4,94.5,359.4,96.2,359.4,97.6z"/>
					<path class="st2" d="M358.3,97c0,0.7-0.5,1-1.2,0.7c-0.6-0.4-1.2-1.3-1.2-2c0-0.7,0.5-1,1.2-0.7
						C357.8,95.4,358.3,96.3,358.3,97z"/>
					<path class="st5" d="M363.7,100.1c0,0.7-0.5,0.9-1,0.6c-0.6-0.3-1-1.1-1-1.8s0.5-0.9,1-0.6C363.2,98.7,363.7,99.5,363.7,100.1z
						"/>
				</g>
				<polygon class="st4" points="457.3,143.2 451.8,146.4 451.8,286.1 457.3,282.9 				"/>
				<polygon class="st3" points="457.3,143.2 451.8,146.4 262.5,37.1 268,33.9 				"/>
			</g>
		</g>
		<polygon class="st6" points="262.5,0 262.5,164.5 451.8,273.8 451.8,0 		"/>
		<g>
			<path class="st7" d="M435.3,253.5l-42.1-24.3c-2.2-1.3-3.9-4.6-3.9-7.5v-84.5c0-2.9,1.8-4.2,3.9-3l42.1,24.3
				c2.2,1.3,3.9,4.6,3.9,7.5v84.5C439.2,253.4,437.4,254.7,435.3,253.5z"/>
			<ellipse transform="matrix(0.866 -0.5 0.5 0.866 -33.5749 230.9812)" class="st8" cx="414.2" cy="178.1" rx="15.3" ry="26.6"/>
			<ellipse transform="matrix(0.866 -0.5 0.5 0.866 -31.9855 230.5553)" class="st2" cx="414.2" cy="175" rx="15.3" ry="26.6"/>
			<path class="st4" d="M426.9,198.3c0.1-6-1.2-7.9-6.3-11.5c-5.8-4-3.1-10-3.1-10l-3.3-3.7l-3.3-0.1c0,0,2.7,9.1-3.1,6.4
				c-5.1-2.3-6.4-1.9-6.3,4.2c3.3,5.4,7.8,10.2,12.7,13C419.1,199.5,423.5,199.9,426.9,198.3z"/>
			<path class="st9" d="M418.4,184.8L418.4,184.8c-2.8-3.7-0.9-7.9-0.9-7.9l-3.3-3.7l-3.3-0.1c0,0,1.9,6.4-0.9,6.9
				c0,0,1.2,3.2,4.2,5C417.2,186.6,418.4,184.8,418.4,184.8z"/>
			<path class="st2" d="M431.3,216.9l-34.1-19.7c-1-0.6-1.7-2.1-1.7-3.3l0,0c0-1.3,0.8-1.9,1.7-1.3l34.1,19.7c1,0.6,1.7,2.1,1.7,3.3
				l0,0C433,216.8,432.2,217.4,431.3,216.9z"/>
			<path class="st2" d="M432.2,222.2l-35.8-20.7c-0.5-0.3-0.9-1-0.9-1.7l0,0c0-0.6,0.4-0.9,0.9-0.7l35.8,20.7c0.5,0.3,0.9,1,0.9,1.7
				l0,0C433,222.2,432.6,222.5,432.2,222.2z"/>
			<path class="st8" d="M425.6,226.6l-29.3-16.9c-0.5-0.3-0.9-1-0.9-1.7l0,0c0-0.6,0.4-0.9,0.9-0.7l29.3,16.9c0.5,0.3,0.9,1,0.9,1.7
				l0,0C426.4,226.6,426,226.9,425.6,226.6z"/>
			<path class="st8" d="M425.6,236.5l-29.3-16.9c-0.5-0.3-0.9-1-0.9-1.7l0,0c0-0.6,0.4-0.9,0.9-0.7l29.3,16.9c0.5,0.3,0.9,1,0.9,1.7
				l0,0C426.4,236.5,426,236.8,425.6,236.5z"/>
			<path class="st8" d="M419.5,237.9l-23.2-13.4c-0.5-0.3-0.9-1-0.9-1.7l0,0c0-0.6,0.4-0.9,0.9-0.7l23.2,13.4c0.5,0.3,0.9,1,0.9,1.7
				l0,0C420.3,237.9,419.9,238.2,419.5,237.9z"/>
			<path class="st8" d="M428,233l-31.7-18.3c-0.5-0.3-0.9-1-0.9-1.7l0,0c0-0.6,0.4-0.9,0.9-0.7l31.7,18.3c0.5,0.3,0.9,1,0.9,1.7l0,0
				C428.9,233,428.5,233.3,428,233z"/>
			<path class="st9" d="M409.4,172c0,0-1.2-0.7-1.6-3.3c-0.3-2.2,0.2-3.5,1.5-2.3L409.4,172z"/>
			<path class="st9" d="M419.1,177.6c0,0,1.2,0.7,1.6-1.4c0.3-1.8-0.2-3.7-1.5-4L419.1,177.6z"/>
			<path class="st9" d="M414.7,179.3l-1-0.6c-2.6-1.5-4.7-5.6-4.7-9.1v-3.2c0-3.5,2.1-5.1,4.7-3.6l1,0.6c2.6,1.5,4.7,5.6,4.7,9.1
				v3.2C419.5,179.2,417.3,180.8,414.7,179.3z"/>
			<path class="st10" d="M418.4,166.1c0,0,1.9,1.2,1.9,4.1c0,2.9-0.9,6.8-0.9,6.8s-0.7-6.8-2.5-9.3L418.4,166.1z"/>
			<g>
				<path class="st11" d="M406,182.4c0-1.3,0-2.5-0.1-3.7c-3.4-1.3-4.4-0.2-4.3,5c1.2,1.9,2.5,3.7,3.9,5.4
					C405.8,187.2,406,184.9,406,182.4z"/>
				<path class="st11" d="M422.5,188.3c-0.1,1.1-0.1,2.3-0.1,3.6c0,2.6,0.2,5.1,0.6,7.4c1.4,0,2.7-0.3,3.9-0.9
					C427,193.2,426,191,422.5,188.3z"/>
			</g>
			<path class="st3" d="M411.4,178.5c0,0-1.2-0.5-2.4,1.4c0,0,0,3.4,3.2,6.5c0,0,0.4-1.5,2.1-1.5
				C414.2,184.9,410.5,180.9,411.4,178.5z"/>
			<path class="st3" d="M417.1,181.7c0,0,1.2,0.8,2.4,4.2c0,0,0,3.4-3.2,2.9c0,0-0.4-2-2.1-3.9C414.2,184.9,418,185.2,417.1,181.7z"
				/>
			<path class="st10" d="M410,161.2c0,0-1.9-1-1.9,2c0,2.9,0.9,7.9,0.9,7.9s0.7-6,2.5-6.4c0,0,9.9,9.4,9.8,1.7c0,0-0.5,1.1-2.9-1.3
				C416,162.7,410.7,158.5,410,161.2z"/>
		</g>
		<g>
			<path class="st7" d="M317.3,185.4l-42.1-24.3c-2.2-1.3-3.9-4.6-3.9-7.5V69.1c0-2.9,1.8-4.2,3.9-3l42.1,24.3
				c2.2,1.3,3.9,4.6,3.9,7.5v84.5C321.3,185.3,319.5,186.6,317.3,185.4z"/>
			<ellipse transform="matrix(0.866 -0.5 0.5 0.866 -15.3297 162.8865)" class="st8" cx="296.3" cy="110" rx="15.3" ry="26.6"/>
			<ellipse transform="matrix(0.866 -0.5 0.5 0.866 -13.7404 162.4606)" class="st2" cx="296.3" cy="106.9" rx="15.3" ry="26.6"/>
			<path class="st12" d="M308.9,130.2c0.1-6-1.2-7.9-6.3-11.5c-5.8-4-3.1-10-3.1-10l-3.3-3.7L293,105c0,0,2.7,9.1-3.1,6.4
				c-5.1-2.3-6.4-1.9-6.3,4.2c3.3,5.4,7.8,10.2,12.7,13C301.2,131.4,305.6,131.8,308.9,130.2z"/>
			<path class="st0" d="M302,130.8c0.6-0.9,0.8-2,0.8-2l-0.9-2.4l0.9-1c-0.3-2.7-1.9-7.5-1.9-7.5l-9.3-5.4c0,0-1.6,2.9-1.9,5.3
				l0.9,2l-0.9,1.4c0,0,0.2,1.3,0.8,3c1.8,1.7,3.7,3.2,5.7,4.3C298.3,129.7,300.2,130.5,302,130.8z"/>
			<path class="st3" d="M299.6,130.2c2.1-3.2,1-12.2,1-12.2l-8.8-5.1c0,0-1.1,7.8,1,13.4c1.1,0.9,2.2,1.6,3.3,2.3
				C297.4,129.2,298.5,129.8,299.6,130.2z"/>
			<path class="st2" d="M298.4,129.7l-1.1-9.6l-1-1.6l-1,0.4l-1.1,8.3c0.7,0.5,1.4,1,2.1,1.4C297,129,297.7,129.3,298.4,129.7z"/>
			<path class="st2" d="M297.9,119.4c0,1-0.7,1.5-1.6,0.9c-0.9-0.5-1.6-1.8-1.6-2.8c0-1,0.7-1.5,1.6-0.9
				C297.2,117.1,297.9,118.4,297.9,119.4z"/>
			<path class="st9" d="M300.5,116.7L300.5,116.7c-2.8-3.7-0.9-7.9-0.9-7.9l-3.3-3.7L293,105c0,0,1.9,6.4-0.9,6.9c0,0,1.2,3.2,4.2,5
				S300.5,116.7,300.5,116.7z"/>
			<path class="st2" d="M313.3,148.8l-34.1-19.7c-1-0.6-1.7-2.1-1.7-3.3l0,0c0-1.3,0.8-1.9,1.7-1.3l34.1,19.7c1,0.6,1.7,2.1,1.7,3.3
				l0,0C315.1,148.7,314.3,149.3,313.3,148.8z"/>
			<path class="st2" d="M314.2,154.1l-35.8-20.7c-0.5-0.3-0.9-1-0.9-1.7l0,0c0-0.6,0.4-0.9,0.9-0.7l35.8,20.7c0.5,0.3,0.9,1,0.9,1.7
				l0,0C315.1,154.1,314.7,154.4,314.2,154.1z"/>
			<path class="st8" d="M307.6,158.5l-29.3-16.9c-0.5-0.3-0.9-1-0.9-1.7l0,0c0-0.6,0.4-0.9,0.9-0.7l29.3,16.9c0.5,0.3,0.9,1,0.9,1.7
				l0,0C308.5,158.5,308.1,158.8,307.6,158.5z"/>
			<path class="st8" d="M307.6,168.4l-29.3-16.9c-0.5-0.3-0.9-1-0.9-1.7l0,0c0-0.6,0.4-0.9,0.9-0.7l29.3,16.9c0.5,0.3,0.9,1,0.9,1.7
				l0,0C308.5,168.4,308.1,168.7,307.6,168.4z"/>
			<path class="st8" d="M301.5,169.8l-23.2-13.4c-0.5-0.3-0.9-1-0.9-1.7l0,0c0-0.6,0.4-0.9,0.9-0.7l23.2,13.4c0.5,0.3,0.9,1,0.9,1.7
				v0C302.4,169.8,302,170.1,301.5,169.8z"/>
			<path class="st8" d="M310.1,164.9l-31.7-18.3c-0.5-0.3-0.9-1-0.9-1.7l0,0c0-0.6,0.4-0.9,0.9-0.7l31.7,18.3c0.5,0.3,0.9,1,0.9,1.7
				l0,0C311,164.9,310.6,165.2,310.1,164.9z"/>
			<path class="st9" d="M291.4,103.9c0,0-1.2-0.7-1.6-3.3c-0.3-2.2,0.2-3.5,1.5-2.3L291.4,103.9z"/>
			<path class="st9" d="M301.1,109.5c0,0,1.2,0.7,1.6-1.4c0.3-1.8-0.2-3.7-1.5-4L301.1,109.5z"/>
			<path class="st9" d="M296.8,111.2l-1-0.6c-2.6-1.5-4.7-5.6-4.7-9.1v-3.2c0-3.5,2.1-5.1,4.7-3.6l1,0.6c2.6,1.5,4.7,5.6,4.7,9.1
				v3.2C301.5,111.1,299.4,112.7,296.8,111.2z"/>
			<g>
				<path class="st0" d="M288.1,114.3c0-1.3,0-2.5-0.1-3.7c-3.4-1.3-4.4-0.2-4.3,5c1.2,1.9,2.5,3.7,3.9,5.4
					C287.9,119.1,288.1,116.8,288.1,114.3z"/>
				<path class="st0" d="M304.6,120.2c-0.1,1.1-0.1,2.3-0.1,3.6c0,2.6,0.2,5.1,0.6,7.4c1.4,0,2.7-0.3,3.9-0.9
					C309.1,125.1,308.1,122.9,304.6,120.2z"/>
			</g>
			<path class="st4" d="M293.5,110.4c0,0-1.2-0.5-2.4,1.4c0,0,0,3.4,3.2,6.5c0,0,0.4-1.5,2.1-1.5
				C296.3,116.8,292.5,112.8,293.5,110.4z"/>
			<path class="st4" d="M299.1,113.7c0,0,1.2,0.8,2.4,4.2c0,0,0,3.4-3.2,2.9c0,0-0.4-2-2.1-3.9C296.3,116.8,300,117.1,299.1,113.7z"
				/>
			<path class="st13" d="M296.3,112.4c3.9,2.3,4.7,1.4,5.2-0.2c0.5-1.5,0-6.5,0-6.5s-1.1,1.6-1.6,2.4c0,0-1.1-1.2-3.6-2.7
				c-2.5-1.5-3.6-1.5-3.6-1.5c-0.5-1.4-1.6-4.3-1.6-4.3s-0.5,4.4,0,6.5C291.6,108.3,292.4,110.1,296.3,112.4z"/>
		</g>
		<path class="st6" d="M326.6,0v191.7c0,3.3,2,7.2,4.5,8.6l48.2,27.8c2.5,1.4,4.5-0.1,4.5-3.4V0H326.6z"/>
		<g>
			<path class="st14" d="M379.4,228.2l-48.2-27.8c-2.5-1.4-4.5-5.3-4.5-8.6V94.8c0-3.3,2-4.8,4.5-3.4l48.2,27.8
				c2.5,1.4,4.5,5.3,4.5,8.6v96.9C383.9,228.1,381.9,229.6,379.4,228.2z"/>
			<ellipse transform="matrix(0.866 -0.5 0.5 0.866 -23.2999 196.626)" class="st15" cx="355.3" cy="141.8" rx="17.6" ry="30.5"/>
			<ellipse transform="matrix(0.866 -0.5 0.5 0.866 -21.4772 196.138)" class="st2" cx="355.3" cy="138.1" rx="17.6" ry="30.5"/>
			<path class="st7" d="M369.8,164.9c0.2-6.8-1.4-9.1-7.2-13.2c-6.6-4.6-3.5-11.4-3.5-11.4l-3.8-4.3l-3.8-0.1c0,0,3.1,10.4-3.5,7.4
				c-5.8-2.7-7.4-2.2-7.2,4.8c3.8,6.2,8.9,11.6,14.5,14.9C360.9,166.3,365.9,166.7,369.8,164.9z"/>
			<path class="st9" d="M364.7,157.5c0-1.4,0.1-2.8,0.2-4.1c4,3.1,5.1,5.6,4.9,11.5c-1.3,0.6-2.8,1-4.5,1
				C366.2,163.4,364.7,160.4,364.7,157.5z"/>
			<path class="st8" d="M360.7,150.5l0.1-0.2c-4.3-4.5-1.8-10-1.8-10l-3.8-4.3l-3.8-0.1c0,0,2.5,8.5-1.8,7.9l0.2,0.4
				c0,0,1.6,7,5.5,9.3C359.2,155.8,360.7,150.5,360.7,150.5z"/>
			<path class="st9" d="M360.1,149.4L360.1,149.4c-3.2-4.3-1-9.1-1-9.1l-3.8-4.3l-3.8-0.1c0,0,2.2,7.4-1,7.9c0,0,1.4,6.2,4.8,8.2
				C358.7,154.1,360.1,149.4,360.1,149.4z"/>
			<path class="st2" d="M374.8,186.2l-39.1-22.6c-1.1-0.6-2-2.4-2-3.8l0,0c0-1.5,0.9-2.1,2-1.5l39.1,22.6c1.1,0.6,2,2.4,2,3.8l0,0
				C376.8,186.2,375.9,186.8,374.8,186.2z"/>
			<path class="st2" d="M375.8,192.4l-41.1-23.7c-0.5-0.3-1-1.2-1-1.9l0,0c0-0.7,0.4-1.1,1-0.8l41.1,23.7c0.5,0.3,1,1.2,1,1.9l0,0
				C376.8,192.3,376.4,192.7,375.8,192.4z"/>
			<path class="st15" d="M368.2,197.4L334.7,178c-0.5-0.3-1-1.2-1-1.9v0c0-0.7,0.4-1.1,1-0.8l33.6,19.4c0.5,0.3,1,1.2,1,1.9l0,0
				C369.2,197.4,368.8,197.7,368.2,197.4z"/>
			<path class="st15" d="M368.2,208.7l-33.6-19.4c-0.5-0.3-1-1.2-1-1.9l0,0c0-0.7,0.4-1.1,1-0.8l33.6,19.4c0.5,0.3,1,1.2,1,1.9l0,0
				C369.2,208.7,368.8,209,368.2,208.7z"/>
			<path class="st15" d="M361.3,210.3l-26.6-15.4c-0.5-0.3-1-1.2-1-1.9l0,0c0-0.7,0.4-1.1,1-0.8l26.6,15.4c0.5,0.3,1,1.2,1,1.9l0,0
				C362.3,210.3,361.8,210.6,361.3,210.3z"/>
			<path class="st15" d="M371.1,204.7l-36.4-21c-0.5-0.3-1-1.2-1-1.9l0,0c0-0.7,0.4-1.1,1-0.8l36.4,21c0.5,0.3,1,1.2,1,1.9l0,0
				C372.1,204.7,371.6,205,371.1,204.7z"/>
			<path class="st9" d="M349.7,135.5c0,0-1.4-0.8-1.9-3.7c-0.4-2.5,0.2-4,1.7-2.6L349.7,135.5z"/>
			<path class="st9" d="M360.8,141.9c0,0,1.4,0.8,1.9-1.6c0.4-2.1-0.2-4.3-1.7-4.6L360.8,141.9z"/>
			<path class="st9" d="M355.8,143.1l-1.1-0.6c-3-1.7-5.4-6.4-5.4-10.4v-3.7c0-4,2.4-5.8,5.4-4.1l1.1,0.6c3,1.7,5.4,6.4,5.4,10.4
				v3.7C361.3,143,358.8,144.8,355.8,143.1z"/>
			<g>
				<path class="st9" d="M345.8,146.6c0-1.4-0.1-2.9-0.2-4.3c-4-1.4-5.1-0.2-4.9,5.8c1.3,2.2,2.8,4.3,4.5,6.2
					C344.3,150.8,345.8,149.6,345.8,146.6z"/>
			</g>
			<path class="st16" d="M349.3,130.2c0,0,1.4-1.7,3.2-2.2c0,0,3.7,9.8,9.4,16c0,0,1.6-8.2-0.6-13.9c-2.2-5.7-7.7-8.4-9.5-8.3
				C349.9,122,347.6,124.4,349.3,130.2z"/>
		</g>
	</g>
	<polygon class="st0" points="68.6,161.7 111.2,189.4 209.7,132.6 167,104.9 	"/>
	<g>
		<polygon class="st3" points="165.3,105.9 72.8,159.3 96.1,133.9 188.6,80.5 		"/>
		<polygon class="st4" points="72.8,159.3 112.9,185.3 205.4,131.9 165.3,105.9 		"/>
		<g>
			<polygon class="st2" points="205.4,131.9 112.9,185.3 96.1,133.9 188.6,80.5 			"/>
			<polygon class="st14" points="141.8,135.1 108.3,154.4 102,135.4 135.6,116 			"/>
			<g>
				<polygon class="st3" points="145.8,147.4 137.2,152.4 134.5,144.2 143.1,139.2 				"/>
				<polygon class="st3" points="170.7,133 162,138 159.3,129.8 168,124.8 				"/>
				<polygon class="st3" points="183.1,125.8 174.4,130.8 171.8,122.6 180.4,117.6 				"/>
				<polygon class="st3" points="195.5,118.7 186.9,123.7 184.2,115.5 192.9,110.5 				"/>
				<polygon class="st3" points="121,161.7 112.3,166.7 109.6,158.5 118.3,153.5 				"/>
				<polygon class="st3" points="133.4,154.5 124.7,159.5 122,151.3 130.7,146.3 				"/>
				<polygon class="st4" points="158.3,140.2 149.6,145.2 146.9,137 155.6,132 				"/>
			</g>
			<g>
				<polygon class="st4" points="149.5,158.5 140.8,163.5 138.1,155.3 146.8,150.3 				"/>
				<polygon class="st3" points="174.3,144.1 165.7,149.1 163,140.9 171.6,135.9 				"/>
				<polygon class="st3" points="186.7,136.9 178.1,142 175.4,133.7 184.1,128.7 				"/>
				<polygon class="st3" points="199.2,129.8 190.5,134.8 187.8,126.6 196.5,121.6 				"/>
				<polygon class="st3" points="124.6,172.8 115.9,177.8 113.3,169.6 121.9,164.6 				"/>
				<polygon class="st3" points="137,165.7 128.4,170.7 125.7,162.4 134.3,157.4 				"/>
				<polygon class="st3" points="161.9,151.3 153.2,156.3 150.5,148.1 159.2,143.1 				"/>
			</g>
			<g>
				<polygon class="st3" points="166.7,120.7 158,125.7 155.3,117.5 164,112.5 				"/>
				<polygon class="st4" points="179.1,113.5 170.4,118.5 167.7,110.3 176.4,105.3 				"/>
				<polygon class="st3" points="191.5,106.4 182.8,111.4 180.2,103.2 188.8,98.2 				"/>
				<polygon class="st3" points="154.2,127.9 145.6,132.9 142.9,124.7 151.5,119.7 				"/>
			</g>
			<g>
				<polygon class="st4" points="163.1,109.8 154.4,114.8 151.7,106.6 160.4,101.6 				"/>
				<polygon class="st3" points="175.5,102.7 166.9,107.7 164.2,99.5 172.8,94.4 				"/>
				<polygon class="st3" points="187.9,95.5 179.3,100.5 176.6,92.3 185.3,87.3 				"/>
				<polygon class="st3" points="150.7,117 142,122 139.3,113.8 148,108.8 				"/>
			</g>
		</g>
	</g>
	<g>
		<polygon class="st3" points="277.4,288.9 204.6,331 86.4,262.8 159.3,220.7 		"/>
		<polygon class="st17" points="204.6,331 204.6,336.2 86.4,268 86.4,262.8 		"/>
		<polygon class="st1" points="277.4,294.2 204.6,336.2 204.6,331 277.4,288.9 		"/>
		<polygon class="st2" points="263.5,280.9 190.6,323 92.3,266.2 165.1,224.1 		"/>
		<path class="st7" d="M250.9,282.5l-57.5,33.2c-1.5,0.9-3.9,1-5.2,0.2l-83.7-48.3c-1.3-0.8-1.2-2.1,0.4-3l57.5-33.2
			c1.5-0.9,3.9-1,5.2-0.2l83.7,48.3C252.6,280.3,252.4,281.6,250.9,282.5z"/>
		<path class="st1" d="M127.2,242.8c0.7,0.4,0.7,1.1,0,1.5c-0.7,0.4-1.9,0.4-2.6,0c-0.7-0.4-0.7-1.1,0-1.5
			C125.3,242.4,126.5,242.4,127.2,242.8z"/>
		<ellipse class="st1" cx="129.8" cy="241.3" rx="0.9" ry="0.5"/>
		<path class="st1" d="M238.6,303.9l-8.1,4.7c-0.4,0.2-1.1,0.3-1.4,0.1l-0.1-0.1c-0.4-0.2-0.3-0.6,0.1-0.8l8.1-4.7
			c0.4-0.2,1.1-0.3,1.4-0.1l0.1,0.1C239,303.3,239,303.6,238.6,303.9z"/>
		<path class="st1" d="M235.6,302.2l-8.1,4.7c-0.4,0.2-1.1,0.3-1.4,0.1l-0.1-0.1c-0.4-0.2-0.3-0.6,0.1-0.8l8.1-4.7
			c0.4-0.2,1.1-0.3,1.4-0.1l0.1,0.1C236,301.6,236,301.9,235.6,302.2z"/>
		<path class="st1" d="M241.5,305.6l-8.1,4.7c-0.4,0.2-1.1,0.3-1.4,0.1l-0.1-0.1c-0.4-0.2-0.3-0.6,0.1-0.8l8.1-4.7
			c0.4-0.2,1.1-0.3,1.4-0.1l0.1,0.1C242,305,242,305.4,241.5,305.6z"/>
		<ellipse class="st2" cx="163.2" cy="265" rx="34.7" ry="20.1"/>
		<path class="st1" d="M155.1,254.8c2.7,1.5,2.7,4.1,0,5.6c-2.7,1.5-7,1.5-9.7,0c-2.7-1.5-2.7-4.1,0-5.6
			C148.1,253.2,152.4,253.2,155.1,254.8z"/>
		<path class="st14" d="M175.6,266.9c-3.7,1.1-7.6-2.8-7.6-2.8l-3.2,1.8l-3.2,1.8c0,0,6.8,2.2,4.8,4.4c-1.2,1.3-6.4,3.9-6.4,5.8
			c-0.1,1.8,2,4.2,7.8,6.8c7.3-0.6,14.3-2.5,19.9-5.7c5.6-3.2,8.9-7.3,9.9-11.5c-4.6-3.3-8.7-4.5-11.9-4.5
			C182.4,263.2,177.9,266.2,175.6,266.9z"/>
		<path class="st9" d="M177,266.4L177,266.4c-0.5,0.2-1,0.4-1.4,0.6c-3.7,1.1-7.6-2.8-7.6-2.8l-3.2,1.8l-3.2,1.8
			c0,0,6.8,2.2,4.8,4.4c-0.2,0.2-0.6,0.5-1,0.8l0,0l12.2,0.3L177,266.4z"/>
		<path class="st2" d="M220.6,272.5L176,298.2c-2,1.2-5.1,1.3-6.9,0.3l-0.5-0.3c-1.8-1-1.5-2.8,0.5-4l44.6-25.7
			c2-1.2,5.1-1.3,6.9-0.3l0.5,0.3C222.8,269.5,222.6,271.3,220.6,272.5z"/>
		<path class="st8" d="M229.7,275.5l-48.5,28c-0.9,0.5-2.4,0.6-3.2,0.1l-0.2-0.1c-0.8-0.5-0.7-1.3,0.2-1.8l48.5-28
			c0.9-0.5,2.4-0.6,3.2-0.1l0.2,0.1C230.8,274.1,230.7,274.9,229.7,275.5z"/>
		<path class="st8" d="M231.9,281.6l-44.8,25.9c-0.7,0.4-1.7,0.4-2.3,0.1l-0.2-0.1c-0.6-0.3-0.5-0.9,0.2-1.3l44.8-25.9
			c0.7-0.4,1.7-0.4,2.3-0.1l0.2,0.1C232.6,280.6,232.5,281.2,231.9,281.6z"/>
		<path class="st8" d="M231.8,287.6l-39.6,22.9c-0.6,0.4-1.6,0.4-2.1,0.1l-0.3-0.2c-0.5-0.3-0.5-0.9,0.2-1.2l39.6-22.9
			c0.6-0.4,1.6-0.4,2.1-0.1l0.3,0.2C232.4,286.7,232.4,287.3,231.8,287.6z"/>
		<path class="st9" d="M158.1,269c0,0-3.5,0.1-5.6-1.2c-3.1-1.8,0.7-1.9,0.7-1.9L158.1,269z"/>
		<path class="st9" d="M170.1,262.1c0,0,0.1-2-2.1-3.3c-3.1-1.8-3.3,0.4-3.3,0.4L170.1,262.1z"/>
		<path class="st9" d="M168.4,268.1L168.4,268.1c-3.5,2-8.7,2.2-11.7,0.5l-4.8-2.8c-3-1.7-2.6-4.8,0.8-6.8l0,0
			c3.5-2,8.7-2.2,11.7-0.5l4.8,2.8C172.3,263,171.9,266.1,168.4,268.1z"/>
		<path class="st9" d="M170.9,279.9c-4.9,2.2-7.8,2.3-7.9,2.3c1.2,0.9,2.8,1.8,4.8,2.7c2.8-0.2,5.6-0.6,8.2-1.2
			C172.2,281.5,170.9,279.9,170.9,279.9z"/>
		<path class="st9" d="M188.9,269.5c3.7-2.8,3.9-4.5,4-4.6c1.5,0.7,3.1,1.6,4.7,2.8c-0.4,1.6-1.1,3.2-2.2,4.7
			C191.7,270.3,188.9,269.5,188.9,269.5z"/>
		<path class="st17" d="M155.9,268.1c0,0-1-1.8-3.7-4.6c0,0,6.9-0.6,11.3-3.2c0,0,3.4,1.5,6.9,2.2c0,0-7.7-10.1-18.4-4.8
			C141.7,262.9,150.6,266.6,155.9,268.1z"/>
	</g>
	<path class="st0" d="M479.8,333.3L479.8,333.3L479.8,333.3c-0.1-0.4-0.1-0.8-0.2-1.2c0-0.1,0-0.2-0.1-0.3c-0.1-0.4-0.2-0.7-0.3-1.1
		c0-0.1-0.1-0.3-0.1-0.4c-0.1-0.3-0.2-0.7-0.3-1c-0.1-0.1-0.1-0.3-0.2-0.4c-0.1-0.3-0.3-0.6-0.4-1c-0.1-0.2-0.1-0.3-0.2-0.5
		c-0.1-0.3-0.3-0.6-0.5-0.9c-0.1-0.1-0.2-0.3-0.2-0.4c-0.2-0.3-0.4-0.6-0.5-0.9c-0.1-0.1-0.2-0.2-0.2-0.4c-0.4-0.7-0.9-1.3-1.4-2
		c-0.1-0.1-0.2-0.2-0.2-0.3c-0.2-0.2-0.4-0.5-0.6-0.7c-0.2-0.2-0.4-0.4-0.5-0.6c-0.2-0.2-0.4-0.4-0.6-0.7c-0.2-0.2-0.4-0.5-0.7-0.7
		c-0.2-0.2-0.4-0.4-0.6-0.6c-0.2-0.2-0.5-0.5-0.8-0.7c-0.2-0.2-0.4-0.4-0.7-0.6c-0.3-0.2-0.6-0.5-0.9-0.7c-0.2-0.2-0.5-0.4-0.7-0.6
		c-0.3-0.2-0.6-0.5-1-0.7c-0.2-0.2-0.5-0.3-0.7-0.5c-0.4-0.3-0.8-0.5-1.2-0.8c-0.2-0.1-0.4-0.3-0.6-0.4c-0.6-0.4-1.2-0.8-1.9-1.2
		c-22-12.7-57.8-12.7-79.8,0c-1.7,1-3.2,2-4.7,3.1c-0.3,0.2-0.6,0.5-0.9,0.7c-0.1,0.1-0.1,0.1-0.2,0.2c-1,0.8-2,1.7-2.9,2.5
		c-0.1,0.1-0.2,0.2-0.3,0.4c-0.3,0.3-0.7,0.7-1,1c-0.1,0.1-0.1,0.2-0.2,0.2c-0.8,0.9-1.5,1.8-2.1,2.7c-0.2,0.3-0.4,0.6-0.6,0.9
		c-0.1,0.2-0.3,0.4-0.4,0.6c-0.1,0.2-0.2,0.3-0.3,0.5c-0.8,1.3-1.4,2.7-1.8,4c-0.1,0.2-0.1,0.3-0.1,0.5c-0.1,0.3-0.2,0.7-0.3,1
		c0,0,0,0,0,0.1c-0.1,0.5-0.2,1-0.3,1.5c0,0.1,0,0.2,0,0.3c-0.1,0.4-0.1,0.9-0.2,1.3c0,0,0,0,0,0c0,0.5-0.1,1-0.1,1.5v6.5
		c0,0,0,0,0,0v0c0,1.3,0.1,2.6,0.4,3.9c0.2,0.8,0.4,1.7,0.7,2.5l0,0l0,0c1.5,4.5,4.7,8.8,9.6,12.6l-9.3,5.4
		c-3.2-2.1-7.5-2.4-11.1-0.4l-40,23.1c-1.6,0.9-2.8,2.2-3.7,3.7l0,0c0,0,0,0,0,0c-0.2,0.4-0.4,0.7-0.6,1.1c0,0.1-0.1,0.2-0.1,0.3
		c-0.1,0.3-0.3,0.7-0.4,1c0,0.1,0,0.1-0.1,0.2c-0.1,0.4-0.2,0.8-0.3,1.3c0,0.1,0,0.1,0,0.2c0,0.4-0.1,0.7-0.1,1.1c0,0.1,0,0.2,0,0.3
		c0,0.4,0,0.7,0.1,1.1c0,0.1,0,0.1,0,0.2c0,0.4,0.1,0.8,0.2,1.2c0,0.1,0.1,0.2,0.1,0.3c0.1,0.3,0.2,0.6,0.3,0.9
		c0,0.1,0.1,0.2,0.1,0.3c0.2,0.4,0.4,0.8,0.6,1.2c0.2,0.4,0.5,0.8,0.8,1.1c0.1,0.1,0.1,0.2,0.2,0.3c0.2,0.3,0.5,0.6,0.7,0.8
		c0.1,0.1,0.1,0.1,0.2,0.2c0.3,0.3,0.7,0.6,1,0.8c0.1,0,0.1,0.1,0.2,0.1c0.3,0.2,0.7,0.4,1,0.6c0.1,0,0.1,0.1,0.2,0.1
		c0.8,0.4,1.7,0.7,2.6,0.9c0,0,0.1,0,0.1,0c0.9,0.2,1.9,0.3,2.8,0.2h0h0c1.6-0.1,3.2-0.5,4.7-1.4l40-23.1c3.8-2.2,5.7-6.5,5.2-10.6
		l11.4-6.6c0.5-0.3,0.8-0.6,1.2-1c0.9,0.5,1.8,0.9,2.7,1.3l0,0l0,0c22.2,10.3,54.6,9.5,75.1-2.4c9.7-5.6,15.2-12.8,16.3-20.1
		c0-0.2,0-0.5,0-0.7l0-6C480.1,337,480.1,335.2,479.8,333.3z"/>
	<g>
		<path class="st15" d="M479.8,329.1c-1.1-7.4-6.5-14.5-16.3-20.2c-22-12.7-57.8-12.7-79.8,0c-11,6.4-16.5,14.7-16.5,23v6.5
			c0,0,0,0,0,0v0c0,1.3,0.1,2.6,0.4,3.9c0.2,0.8,0.4,1.7,0.7,2.5l0,0l0,0c2.1,6.1,7.2,11.9,15.4,16.6c1.5,0.9,3,1.7,4.6,2.4l0,0l0,0
			c22.2,10.3,54.6,9.5,75.1-2.4c9.7-5.6,15.2-12.8,16.3-20.1c0-0.2,0-0.5,0-0.7L479.8,329.1z M456.3,350.8
			c-18,10.4-47.3,10.4-65.4,0c-7.6-4.4-12-9.9-13.2-15.6c1.2-5.7,5.6-11.2,13.2-15.6c18-10.4,47.3-10.4,65.4,0
			c7.6,4.4,12,9.9,13.2,15.6C468.3,340.9,463.9,346.4,456.3,350.8z"/>
		<ellipse class="st3" cx="423.6" cy="335.2" rx="46.2" ry="26.7"/>
		<g>
			<path class="st2" d="M435.4,309.4c-14.9,14.9-29.7,29.7-44.6,44.6c0,0,0.1,0.1,0.1,0.1c4.6,2.6,9.9,4.6,15.5,5.9l45.7-45.7
				C447.1,311.9,441.4,310.3,435.4,309.4z"/>
			<path class="st2" d="M391,316.3c-14.8,8.5-17.4,21.4-8.1,31.5l39.3-39.3C410.8,308.7,399.6,311.3,391,316.3z"/>
			<path class="st2" d="M461,319.5c-14.1,14.1-28.1,28.1-42.2,42.2c5.9,0.4,11.8,0.1,17.5-0.9l32.1-32.1
				C467.1,325.5,464.6,322.3,461,319.5z"/>
			<path class="st18" d="M467.3,344l-8.5,8.5C462.6,350,465.4,347.1,467.3,344z"/>
		</g>
		<path class="st14" d="M463.5,308.9c-22-12.7-57.8-12.7-79.8,0c-22,12.7-22,33.3,0,46.1c22,12.7,57.8,12.7,79.8,0
			C485.6,342.3,485.6,321.6,463.5,308.9z M456.3,350.8c-18,10.4-47.3,10.4-65.4,0c-18-10.4-18-27.3,0-37.7c18-10.4,47.3-10.4,65.4,0
			C474.4,323.5,474.4,340.4,456.3,350.8z"/>
		<path class="st19" d="M362.4,371.4L362.4,371.4c-1.2-2-0.5-4.7,1.6-5.9l16.3-9.4c2-1.2,4.7-0.5,5.9,1.6l0,0c1.2,2,0.5,4.7-1.6,5.9
			l-16.3,9.4C366.2,374.1,363.6,373.4,362.4,371.4z"/>
		<path class="st3" d="M313.6,399.9L313.6,399.9c-2.9-5-1.2-11.5,3.9-14.4l40-23.1c5-2.9,11.5-1.2,14.4,3.9l0,0
			c2.9,5,1.2,11.5-3.9,14.4l-40,23.1C323,406.7,316.5,405,313.6,399.9z"/>
		<path class="st20" d="M313.7,389.2c-1.9,3.2-2.1,7.3-0.1,10.7v0c2,3.5,5.9,5.4,9.7,5.2c0.3-2.5-0.1-5.4-1.4-8.2
			C320,392.8,316.8,390,313.7,389.2z"/>
	</g>
	<path class="st0" d="M234.8,252.8l-86.6-50c-5.2-3-4.5-8.2,1.4-11.7l44-25.4c6-3.4,15-3.8,20.2-0.8l86.6,50c5.2,3,4.5,8.2-1.4,11.7
		l-44,25.4C249,255.4,239.9,255.7,234.8,252.8z"/>
	<g>
		<path class="st17" d="M234.8,249.6l-86.6-50c-5.2-3-5.8-9-0.4-12.8l45.9-24.2c6-3.4,15-3.8,20.2-0.8l88.4,49
			c3.9,4.4,2.7,9.2-3.2,12.7l-44,25.4C249,252.2,239.9,252.6,234.8,249.6z"/>
		<path class="st2" d="M234.8,247.3l-86.6-50c-5.2-3-4.5-8.2,1.4-11.7l44-25.4c6-3.4,15-3.8,20.2-0.8l86.6,50
			c5.2,3,4.5,8.2-1.4,11.7l-44,25.4C249,249.9,239.9,250.2,234.8,247.3z"/>
		<polygon class="st3" points="194.4,159.7 216.1,199.6 299.7,220.6 294.1,223.8 208.7,207.8 192.3,160.9 		"/>
		<polygon class="st3" points="194.4,159.7 216.1,199.6 299.7,220.6 294.1,223.8 211.1,205.8 193.3,160.9 		"/>
		<path class="st3" d="M212.7,197.4l-1.5-3l-62.4-8.3c-2,1.2-3.3,2.6-3.8,4.1L212.7,197.4z"/>
		<path class="st3" d="M234.5,210l5.2,0.8l14.4,36c-2,1.2-4.5,1.9-7.2,2.2L234.5,210z"/>
		<path class="st2" d="M300.4,209.3l-86.6-50c-4.9-2.9-13.5-2.6-19.4,0.4l17.2,43.5l88.1,17.3C305,217.1,305.4,212.2,300.4,209.3z"
			/>
	</g>
	<path class="st0" d="M356.7,338.6l-82.8,47.8c-5.9,3.4-14.9,3.8-20,0.8l-46.4-26.8c-5.1-2.9-4.5-8.1,1.4-11.5l82.8-47.8
		c5.9-3.4,14.9-3.8,20-0.8l46.4,26.8C363.2,330,362.6,335.2,356.7,338.6z"/>
	<g>
		<path class="st15" d="M356.7,335.7l-82.8,47.8c-5.9,3.4-14.9,3.8-20,0.8l-46.4-26.8c-5.1-2.9-6.4-7.6-0.7-12.8l84.9-46.6
			c5.9-3.4,14.9-3.8,20-0.8l46.4,24.1C363.2,324.4,362.6,332.3,356.7,335.7z"/>
		<path class="st14" d="M356.7,333l-82.8,47.8c-5.9,3.4-14.9,3.8-20,0.8l-46.4-26.8c-5.1-2.9-4.5-8.1,1.4-11.5l82.8-47.8
			c5.9-3.4,14.9-3.8,20-0.8l46.4,26.8C363.2,324.4,362.6,329.6,356.7,333z"/>
		<polygon class="st15" points="208.2,355.2 289.6,342 312.4,295.1 318,298.3 296.7,346.1 213.2,358.1 		"/>
		<path class="st15" d="M272.7,344.8l-5.2,0.8l-14.3,35.6c0,0,0,0,0,0l0.7,0.4c1.8,1,4,1.6,6.4,1.9L272.7,344.8z"/>
		<path class="st15" d="M294.3,332.3l1.5-3l61.7-8.2c2,1.2,3.3,2.6,3.8,4.1L294.3,332.3z"/>
	</g>
	<path class="st0" d="M127.4,208.2l-5.4,9.2c-0.3,0.6-0.2,1.2,0.5,1.7l10,7.7c1.6,1.2,0,3-2.6,3l-16.7-0.1c-1.1,0-2.1,0.3-2.7,0.8
		l-9.7,7.9c-1.5,1.3-4.9,1-5.7-0.5l-5-9.2c-0.3-0.6-1.1-1-2.1-1.2l-16-2.9c-2.6-0.5-3.1-2.4-0.9-3.3l13.7-5.6
		c0.9-0.4,1.4-0.9,1.4-1.5l-0.2-9.7c0-1.5,3-2.4,5.2-1.5l13.4,5.8c0.9,0.4,2,0.5,3,0.3l15.9-3.1
		C125.8,205.3,128.2,206.7,127.4,208.2z"/>
	<g>
		<path class="st8" d="M129.6,226.9v-7.4l0,0c0.1-0.4-0.1-0.8-0.6-1.1l-6.6-5.1l2.1-3.6c0.1-0.2,0.1-0.3,0.2-0.5v-7.6
			c0.1-1.1-1.8-2-3.7-1.6l-13.9,2.7c-0.9,0.2-1.9,0.1-2.6-0.2l-11.7-5.1c-1.9-0.8-4.5,0-4.5,1.3v7.6l0,1.3c-0.2,0.3-0.5,0.6-1,0.8
			l-12,4.9c-1,0.4-1.3,1-1.1,1.6v7.1c-0.1,0.2-0.1,0.4,0,0.6v0l0,0c0.2,0.6,0.8,1.1,1.9,1.2l14,2.5c0.9,0.2,1.6,0.6,1.9,1.1l4.4,8.1
			c0.7,1.3,3.7,1.6,5,0.5l8.5-6.9c0.5-0.4,1.4-0.7,2.3-0.7l14.7,0.1C128.6,228.7,129.8,227.8,129.6,226.9L129.6,226.9z"/>
		<path class="st21" d="M91.1,226.9c0.4,0.2,0.7,0.4,0.8,0.7l4.4,8.1c0.4,0.7,1.4,1.1,2.5,1.1v-14.3l-7.6-5.5V226.9z"/>
		<path class="st21" d="M111.1,228.7c0.3-0.1,0.7-0.1,1-0.1l14.7,0.1c1.8,0,3-0.9,2.9-1.8v-7.4c0.1-0.4-0.1-0.8-0.6-1.1l-3.8-3
			l-14.2,1V228.7z"/>
		<path class="st7" d="M124.6,202.1l-4.7,8c-0.3,0.5-0.1,1.1,0.4,1.5l8.8,6.8c1.4,1.1,0,2.6-2.3,2.6l-14.7-0.1
			c-0.9,0-1.8,0.3-2.3,0.7l-8.5,6.9c-1.4,1.1-4.3,0.8-5-0.5L92,220c-0.3-0.5-1-0.9-1.9-1.1l-14-2.5c-2.2-0.4-2.7-2.1-0.8-2.9l12-4.9
			c0.8-0.3,1.2-0.8,1.2-1.4l-0.2-8.5c0-1.4,2.6-2.1,4.5-1.3l11.7,5.1c0.7,0.3,1.7,0.4,2.6,0.2l13.9-2.7
			C123.2,199.6,125.4,200.9,124.6,202.1z"/>
		<path class="st8" d="M116.8,205.9l-2.8,4.8c-0.2,0.3-0.1,0.6,0.2,0.9l5.2,4c0.8,0.6,0,1.6-1.4,1.6l-8.8-0.1
			c-0.6,0-1.1,0.1-1.4,0.4l-5.1,4.1c-0.8,0.7-2.6,0.5-3-0.3l-2.6-4.8c-0.2-0.3-0.6-0.5-1.1-0.6l-8.4-1.5c-1.3-0.2-1.6-1.3-0.5-1.7
			l7.1-2.9c0.5-0.2,0.7-0.5,0.7-0.8l-0.1-5.1c0-0.8,1.6-1.3,2.7-0.8l7,3c0.4,0.2,1,0.2,1.6,0.1l8.3-1.6
			C115.9,204.4,117.2,205.1,116.8,205.9z"/>
	</g>
	<path class="st0" d="M264.7,419.5l-5.8,9.9c-0.4,0.6-0.2,1.3,0.5,1.8l10.8,8.4c1.7,1.3,0.1,3.2-2.8,3.2l-18.1-0.1
		c-1.1,0-2.2,0.3-2.9,0.8L236,452c-1.7,1.4-5.3,1-6.2-0.6l-5.4-10c-0.3-0.6-1.2-1.1-2.3-1.3l-17.3-3.1c-2.8-0.5-3.3-2.6-1-3.6
		l14.8-6c0.9-0.4,1.5-1,1.5-1.7l-0.2-10.4c0-1.7,3.3-2.6,5.6-1.6L240,420c0.9,0.4,2.1,0.5,3.2,0.3l17.1-3.4
		C263,416.4,265.7,417.9,264.7,419.5z"/>
	<g>
		<path class="st8" d="M267.7,438.7v-8.1l0,0c0.1-0.4-0.1-0.8-0.6-1.2l-7.2-5.6l2.3-3.9c0.1-0.2,0.2-0.4,0.2-0.5v-8.4
			c0.1-1.2-2-2.2-4.1-1.8l-15.3,3c-1,0.2-2,0.1-2.9-0.3l-12.9-5.6c-2.1-0.9-5,0-5,1.5v8.4l0,1.5c-0.2,0.4-0.6,0.7-1.1,0.9l-13.2,5.4
			c-1.1,0.4-1.5,1.1-1.3,1.8v7.8c-0.1,0.2-0.1,0.4,0,0.6v0l0,0c0.2,0.6,0.9,1.2,2.1,1.4l15.4,2.8c1,0.2,1.7,0.6,2,1.2l4.8,8.9
			c0.8,1.4,4,1.7,5.5,0.5l9.3-7.6c0.6-0.5,1.6-0.8,2.6-0.8l16.1,0.1C266.5,440.6,267.8,439.7,267.7,438.7L267.7,438.7z"/>
		<path class="st21" d="M225.3,438.6c0.4,0.2,0.8,0.5,0.9,0.8l4.8,8.9c0.4,0.8,1.5,1.2,2.7,1.2v-15.8l-8.4-6V438.6z"/>
		<path class="st21" d="M247.3,440.6c0.4-0.1,0.7-0.1,1.2-0.1l16.1,0.1c2,0,3.3-1,3.1-1.9v-8.1c0.1-0.4-0.1-0.8-0.6-1.2l-4.2-3.3
			l-15.6,1.1V440.6z"/>
		<path class="st7" d="M262.1,411.4l-5.2,8.8c-0.3,0.6-0.2,1.2,0.5,1.6l9.7,7.5c1.5,1.2,0,2.9-2.5,2.9l-16.1-0.1c-1,0-2,0.3-2.6,0.8
			l-9.3,7.6c-1.5,1.2-4.7,0.9-5.5-0.5l-4.8-8.9c-0.3-0.6-1.1-1-2-1.2l-15.4-2.8c-2.5-0.4-3-2.3-0.9-3.2l13.2-5.4
			c0.8-0.3,1.3-0.9,1.3-1.5l-0.2-9.3c0-1.5,2.9-2.4,5-1.5l12.9,5.6c0.8,0.4,1.9,0.5,2.9,0.3l15.3-3C260.6,408.6,263,410,262.1,411.4
			z"/>
		<path class="st8" d="M253.5,415.5l-3.1,5.3c-0.2,0.3-0.1,0.7,0.3,1l5.8,4.5c0.9,0.7,0,1.7-1.5,1.7l-9.6-0.1
			c-0.6,0-1.2,0.2-1.5,0.5l-5.6,4.5c-0.9,0.7-2.8,0.5-3.3-0.3l-2.9-5.3c-0.2-0.3-0.6-0.6-1.2-0.7l-9.2-1.7c-1.5-0.3-1.8-1.4-0.5-1.9
			l7.9-3.2c0.5-0.2,0.8-0.5,0.8-0.9l-0.1-5.6c0-0.9,1.7-1.4,3-0.9l7.7,3.3c0.5,0.2,1.1,0.3,1.7,0.2l9.1-1.8
			C252.6,413.9,254,414.7,253.5,415.5z"/>
	</g>
	<path class="st0" d="M346.9,422.4l22.1,4.3c1.4,0.3,2.9,0.1,4.1-0.4l18.7-8.1c3-1.3,7.2,0,7.2,2.1l-0.3,13.5c0,0.9,0.7,1.7,1.9,2.2
		l19.1,7.8c3,1.2,2.3,4-1.3,4.6l-22.3,4c-1.4,0.3-2.5,0.9-3,1.7l-6.9,12.9c-1.1,2.1-5.8,2.5-8,0.7l-13.5-11
		c-0.9-0.7-2.3-1.1-3.7-1.1l-23.4,0.2c-3.7,0-5.9-2.4-3.7-4.2l14-10.8c0.9-0.7,1.1-1.6,0.7-2.4l-7.5-12.8
		C340,423.7,343.4,421.8,346.9,422.4z"/>
	<g>
		<path class="st8" d="M416.8,430.9L416.8,430.9c0-0.7-0.6-1.4-1.7-1.8l-17-6.9c-1.1-0.4-1.7-1.2-1.7-1.9l0.3-12
			c0-1.9-3.7-3-6.4-1.9l-16.7,7.2c-1.1,0.5-2.4,0.6-3.7,0.3l-19.7-3.9c-2.8-0.5-5.5,0.7-5.3,2.3l0,0l0,13.2l0,0c0,0.3,0,0.6,0.2,0.9
			l1.9,3.3l-8.3,6.4c-0.6,0.5-0.8,1-0.8,1.5l0,0l0.1,13.8l0,0c0.4,1,1.9,1.9,4,1.9l20.8-0.2c1.3,0,2.6,0.4,3.3,1l12,9.8
			c1.9,1.6,6.1,1.2,7.1-0.7l6.2-11.5c0.4-0.7,1.4-1.3,2.6-1.5l19.9-3.6c1.6-0.3,2.6-1.1,2.8-1.9h0V430.9z"/>
		<path class="st21" d="M364.1,453.2c0.8,0.2,1.5,0.4,2.1,0.9l12,9.8c0.7,0.6,1.8,0.9,2.9,1v-17.3l-17-12.2V453.2z"/>
		<path class="st21" d="M392.1,451.1c0.5-0.4,1.2-0.7,2.1-0.9l19.9-3.6c1.6-0.3,2.6-1.1,2.8-1.9h0v-13.9l0,0c0-0.7-0.6-1.4-1.7-1.8
			l-2.6-1.1l-20.4,4V451.1z"/>
		<path class="st7" d="M350.2,409.9l19.7,3.9c1.3,0.2,2.6,0.1,3.7-0.3l16.7-7.2c2.7-1.1,6.5,0,6.4,1.9l-0.3,12
			c0,0.8,0.6,1.5,1.7,1.9l17,6.9c2.7,1.1,2.1,3.5-1.1,4.1l-19.9,3.6c-1.3,0.2-2.2,0.8-2.6,1.5l-6.2,11.5c-1,1.8-5.2,2.2-7.1,0.7
			l-12-9.8c-0.8-0.6-2-1-3.3-1l-20.8,0.2c-3.3,0-5.3-2.2-3.3-3.7l12.5-9.6c0.8-0.6,1-1.4,0.6-2.1l-6.7-11.4
			C344,411.1,347,409.3,350.2,409.9z"/>
		<path class="st8" d="M361.9,418l11,2.2c0.7,0.1,1.5,0.1,2.1-0.2l9.3-4c1.5-0.6,3.6,0,3.6,1.1l-0.1,6.7c0,0.4,0.3,0.8,0.9,1.1
			l9.5,3.9c1.5,0.6,1.1,2-0.6,2.3l-11.1,2c-0.7,0.1-1.3,0.4-1.5,0.9l-3.5,6.4c-0.6,1-2.9,1.2-4,0.4l-6.7-5.5
			c-0.4-0.3-1.1-0.6-1.9-0.5l-11.7,0.1c-1.9,0-2.9-1.2-1.8-2.1l7-5.4c0.4-0.3,0.6-0.8,0.3-1.2l-3.7-6.4
			C358.5,418.7,360.2,417.7,361.9,418z"/>
	</g>
	<path class="st0" d="M230.7,393.9l-78.8,45.5c-2.9,1.7-7.4,1.9-9.9,0.4L22,370.6c-2.5-1.5-2.2-4,0.7-5.7l78.8-45.5
		c2.9-1.7,7.4-1.9,9.9-0.4l119.9,69.2C233.9,389.6,233.6,392.2,230.7,393.9z"/>
	<g>
		<path class="st2" d="M228.4,391.1l-77.1,44.5c-2.9,1.7-7.2,1.8-9.7,0.4L24.3,368.2c-2.5-1.4-2.2-4,0.7-5.6l77.1-44.5
			c2.9-1.7,7.2-1.8,9.7-0.4l117.3,67.7C231.6,386.9,231.3,389.4,228.4,391.1z"/>
		<g>
			
				<ellipse transform="matrix(0.9982 -6.025001e-02 6.025001e-02 0.9982 -21.9994 4.3925)" class="st3" cx="61.8" cy="367" rx="16.7" ry="9.7"/>
			<path class="st7" d="M78.6,366.4c-3.3-1.8-4.8-1.6-8.2,0.3c-3.9,2.1-6.5-1.1-6.5-1.1l-3,0.8l-1,1.8c0,0,5.9,1,2.8,3.5
				c-2.7,2.2-2.9,3.1,0.6,4.7c4-0.3,7.9-1.5,10.9-3.5C77,371.2,78.5,368.8,78.6,366.4z"/>
			<path class="st9" d="M68.6,367.4L68.6,367.4c-2.9,0.5-4.7-1.7-4.7-1.7l-3,0.8l-1,1.8c0,0,4.2,0.7,3.6,2.4c0,0,2.2,0.2,4-1
				C69.3,368.6,68.6,367.4,68.6,367.4z"/>
			<path class="st9" d="M58.8,368.9c0,0-0.8,0.5-2.3,0c-1.3-0.4-1.9-1.1-0.9-1.5L58.8,368.9z"/>
			<path class="st9" d="M64.7,365c0,0,0.8-0.5-0.3-1.3c-0.9-0.7-2.2-0.9-2.7-0.3L64.7,365z"/>
			<path class="st9" d="M64.4,367.9l-0.6,0.4c-1.6,1-4.5,1.1-6.4,0.1l-1.8-0.9c-2-1-2.3-2.6-0.7-3.7l0.6-0.4c1.6-1,4.5-1.1,6.4-0.1
				l1.8,0.9C65.7,365.2,66,366.9,64.4,367.9z"/>
			<path class="st1" d="M58,362.1c0,0,1.2-0.7,2.8,0.1c1.6,0.8,3.6,2.4,3.6,2.4s-4-1.5-6-1.2L58,362.1z"/>
			<g>
				<path class="st8" d="M63.7,373.7c-0.7-0.4-1.4-0.7-2.1-1c-1.7,1.6-1.4,2.4,1.6,3.8c1.4-0.1,2.8-0.3,4.1-0.7
					C66.4,375.2,65.1,374.4,63.7,373.7z"/>
				<path class="st8" d="M71.7,366.1c0.6,0.4,1.3,0.7,2,1.1c1.5,0.7,2.9,1.3,4.3,1.8c0.4-0.8,0.6-1.6,0.6-2.5
					C75.7,364.9,74.2,364.9,71.7,366.1z"/>
			</g>
			<path class="st8" d="M63,369.6c0,0-0.6,0.5,0.1,1.7c0,0,1.9,0.9,4.6,0.1c0,0-0.7-0.7-0.3-1.6C67.4,369.8,64.1,370.8,63,369.6z"/>
			<path class="st8" d="M66.5,367.3c0,0,0.8-0.4,3-0.2c0,0,1.9,1,0.7,2.6c0,0-1.3-0.3-2.8,0.1C67.4,369.8,68.7,367.8,66.5,367.3z"/>
			<path class="st1" d="M52.9,365.5c0,0-1.1,0.8,0.6,1.6s4.7,1.7,4.7,1.7s-3.2-2.1-2.9-3.2c0,0,2.8-1,4.2-2.3
				c0.9-0.8-0.1-2.3-1.2-1.8c-0.2,0.1-0.5,0.2-0.8,0.3C55.4,362.5,51.5,364.4,52.9,365.5z"/>
		</g>
		<path class="st3" d="M141.2,346L73,385.3c-0.8,0.5-2,0.5-2.7,0.1l-0.2-0.1c-0.7-0.4-0.6-1.1,0.2-1.6l68.2-39.4
			c0.8-0.5,2-0.5,2.7-0.1l0.2,0.1C142.1,344.8,142,345.5,141.2,346z"/>
		<path class="st3" d="M155.1,354l-68.2,39.4c-0.8,0.5-2,0.5-2.7,0.1l-0.2-0.1c-0.7-0.4-0.6-1.1,0.2-1.6l68.2-39.4
			c0.8-0.5,2-0.5,2.7-0.1l0.2,0.1C156,352.8,155.9,353.5,155.1,354z"/>
		<path class="st3" d="M113.4,330L73.5,353c-0.8,0.5-2,0.5-2.7,0.1l-0.2-0.1c-0.7-0.4-0.6-1.1,0.2-1.6l39.9-23.1
			c0.8-0.5,2-0.5,2.7-0.1l0.2,0.1C114.3,328.8,114.3,329.5,113.4,330z"/>
		<path class="st3" d="M127.3,338L87.4,361c-0.8,0.5-2,0.5-2.7,0.1l-0.2-0.1c-0.7-0.4-0.6-1.1,0.2-1.6l39.9-23.1
			c0.8-0.5,2-0.5,2.7-0.1l0.2,0.1C128.2,336.8,128.1,337.5,127.3,338z"/>
		<path class="st3" d="M168.9,362l-68.2,39.4c-0.8,0.5-2,0.5-2.7,0.1l-0.2-0.1c-0.7-0.4-0.6-1.1,0.2-1.6l68.2-39.4
			c0.8-0.5,2-0.5,2.7-0.1l0.2,0.1C169.8,360.8,169.7,361.5,168.9,362z"/>
		<path class="st3" d="M182.8,370l-68.2,39.4c-0.8,0.5-2,0.5-2.7,0.1l-0.2-0.1c-0.7-0.4-0.6-1.1,0.2-1.6l68.2-39.4
			c0.8-0.5,2-0.5,2.7-0.1l0.2,0.1C183.7,368.8,183.6,369.5,182.8,370z"/>
		<path class="st3" d="M187.4,383.3l-58.9,34c-0.8,0.5-2,0.5-2.7,0.1l-0.2-0.1c-0.7-0.4-0.6-1.1,0.2-1.6l58.9-34
			c0.8-0.5,2-0.5,2.7-0.1l0.2,0.1C188.3,382.2,188.2,382.9,187.4,383.3z"/>
		<path class="st3" d="M189.8,398l-47.4,27.4c-0.8,0.5-2,0.5-2.7,0.1l-0.2-0.1c-0.7-0.4-0.6-1.1,0.2-1.6l47.4-27.4
			c0.8-0.5,2-0.5,2.7-0.1l0.2,0.1C190.7,396.8,190.6,397.5,189.8,398z"/>
	</g>
</g>
<g id="DESIGNED_BY_FREEPIK">
	<g>
		<g id="XMLID_319_">
			<g id="XMLID_338_">
				<path id="XMLID_346_" class="st22" d="M260.1,470.4c-0.4,0.4-0.8,0.9-1.1,1.5l-0.5-0.2c-0.1-0.3-0.3-0.5-0.7-0.5
					c-0.3,0-0.6,0.3-0.5,0.7c0,0.3,0.3,0.6,0.7,0.5c0.1,0,0.1,0,0.2-0.1l0.5,0.2c-0.3,0.6-0.4,1.1-0.5,1.7l0.7,0.1
					c0.2-1.3,0.8-2.5,1.8-3.5L260.1,470.4z"/>
				<path id="XMLID_345_" class="st22" d="M265.6,468.1c-0.2,0-0.3,0-0.5,0l-0.1-0.6c0.2-0.1,0.3-0.4,0.3-0.6c0-0.4-0.4-0.7-0.8-0.6
					c-0.4,0-0.7,0.4-0.6,0.8c0,0.3,0.2,0.5,0.4,0.6l0.1,0.6c-0.7,0.1-1.4,0.3-2.1,0.6l0.3,0.7c0.9-0.4,1.9-0.7,3-0.7
					c0.5,0,1,0.1,1.5,0.2l0.2-0.7C266.7,468.2,266.1,468.1,265.6,468.1z"/>
				<path id="XMLID_344_" class="st22" d="M272.2,470.6c0.3,0,0.6-0.3,0.5-0.7c0-0.3-0.3-0.6-0.7-0.5c-0.3,0-0.5,0.3-0.5,0.6
					l-0.4,0.4c-0.4-0.4-0.9-0.8-1.4-1.1l-0.4,0.6c1.1,0.7,2,1.7,2.6,2.9l0.7-0.3c-0.3-0.6-0.6-1.1-0.9-1.5l0.4-0.4
					C272.1,470.6,272.1,470.6,272.2,470.6z"/>
				<path id="XMLID_343_" class="st22" d="M265,478.3c-0.4,0-0.8,0-1.2,0c-0.9,0-1.7-0.1-2.5-0.2c-0.4-0.1-0.8-0.2-1.3-0.3
					c1,1.9,3.1,3.1,5.4,3.1c2.9,0,5.3-1.9,5.9-4.5c-0.7,0.4-1.5,0.8-2.5,1.1C267.8,478,266.5,478.2,265,478.3z"/>
				<path id="XMLID_339_" class="st22" d="M265.6,469.6c-3.4,0-6.1,2.7-6.1,5.9c0,0.4,0,0.8,0.1,1.3c0.7,0.5,2.7,0.9,5.3,0.7
					c2.9-0.2,5.3-1,6.7-2.2c0-0.2,0-0.4,0-0.6C271.2,471.8,268.7,469.6,265.6,469.6z M263.4,476.1c-1,0-1.8-0.8-1.8-1.8
					c0-1,0.8-1.8,1.8-1.8c1,0,1.8,0.8,1.8,1.8C265.3,475.3,264.5,476.1,263.4,476.1z M268.2,475.2c-0.8,0-1.4-0.6-1.4-1.4
					c0-0.8,0.6-1.4,1.4-1.4c0.8,0,1.4,0.6,1.4,1.4C269.5,474.6,268.9,475.2,268.2,475.2z"/>
			</g>
			<path id="XMLID_336_" class="st22" d="M281.6,471.5c-0.3-0.1-0.8-0.3-1.4-0.2c-0.6,0.1-0.8,0.3-0.8,1v0.9h2.2v1.7h-2.2v5.5h-1.9
				v-5.5h-1.3v-1.7h1.3v-0.9c0-1.7,0.9-2.8,2.6-2.8c0.6,0,1.2,0.1,1.6,0.3L281.6,471.5z"/>
			<path id="XMLID_334_" class="st22" d="M286.3,474.8c-0.2,0-0.4,0-0.5,0c-0.9,0-1.5,0.5-1.5,1.6v3.9h-1.9v-7.2h1.9v0.8
				c0.5-0.7,1.1-1,2-1c0.4,0,0.8,0.1,1.1,0.3L286.3,474.8z"/>
			<path id="XMLID_331_" class="st22" d="M294,476.7c0,0.2,0,0.5,0,0.7h-5.1c0.2,1,0.9,1.5,1.8,1.5c0.6,0,1.3-0.3,1.8-0.7l1.1,1.2
				c-0.8,0.7-1.9,1.1-3.1,1.1c-2.2,0-3.7-1.5-3.7-3.8c0-2.3,1.5-3.8,3.6-3.8C292.5,472.9,294,474.5,294,476.7z M288.9,476h3.2
				c-0.2-0.9-0.7-1.4-1.6-1.4C289.6,474.6,289,475.1,288.9,476z"/>
			<path id="XMLID_328_" class="st22" d="M301.6,476.7c0,0.2,0,0.5,0,0.7h-5.1c0.2,1,0.9,1.5,1.8,1.5c0.6,0,1.3-0.3,1.8-0.7l1.1,1.2
				c-0.8,0.7-1.9,1.1-3.1,1.1c-2.2,0-3.7-1.5-3.7-3.8c0-2.3,1.5-3.8,3.6-3.8C300.2,472.9,301.6,474.5,301.6,476.7z M296.5,476h3.2
				c-0.2-0.9-0.7-1.4-1.6-1.4C297.2,474.6,296.7,475.1,296.5,476z"/>
			<path id="XMLID_325_" class="st22" d="M310,476.7c0,2.2-1.5,3.8-3.5,3.8c-1,0-1.6-0.4-2.1-0.9v3.7h-1.9v-10.1h1.9v0.8
				c0.5-0.6,1.2-1,2.1-1C308.5,472.9,310,474.5,310,476.7z M304.3,476.7c0,1.1,0.7,2,1.8,2c1.1,0,1.9-0.9,1.9-2c0-1.1-0.7-2-1.9-2
				C305,474.7,304.3,475.6,304.3,476.7z"/>
			<path id="XMLID_322_" class="st22" d="M313.1,470.8c0,0.7-0.5,1.2-1.2,1.2c-0.7,0-1.2-0.5-1.2-1.2c0-0.7,0.5-1.2,1.2-1.2
				C312.5,469.5,313.1,470.1,313.1,470.8z M312.8,480.3h-1.9v-7.2h1.9V480.3z"/>
			<path id="XMLID_320_" class="st22" d="M316,475.7l2.7-2.6h2.4l-3.5,3.4l3.5,3.8h-2.4l-2.7-2.9v2.9h-1.9v-10.7h1.9V475.7z"/>
		</g>
		<g>
			<path class="st22" d="M184.4,480.2v-1.1c-0.5,0.7-1.4,1.2-2.4,1.2c-1.8,0-3.1-1.4-3.1-3.7c0-2.3,1.3-3.7,3.1-3.7
				c1,0,1.8,0.5,2.4,1.2v-3.8h1.1v9.8H184.4z M184.4,478.3v-3.2c-0.4-0.6-1.2-1.1-2.1-1.1c-1.4,0-2.3,1.2-2.3,2.7
				c0,1.6,0.8,2.7,2.3,2.7C183.2,479.4,184,478.9,184.4,478.3z"/>
			<path class="st22" d="M186.9,476.7c0-2.1,1.5-3.7,3.5-3.7c2.1,0,3.4,1.7,3.4,3.8v0.3h-5.7c0.1,1.3,1,2.4,2.5,2.4
				c0.8,0,1.6-0.3,2.2-0.9l0.5,0.7c-0.7,0.7-1.7,1.1-2.8,1.1C188.4,480.4,186.9,478.9,186.9,476.7z M190.4,473.9
				c-1.5,0-2.3,1.3-2.3,2.4h4.6C192.7,475.2,192,473.9,190.4,473.9z"/>
			<path class="st22" d="M194.6,479.3l0.6-0.8c0.5,0.5,1.4,1,2.3,1c1.1,0,1.7-0.5,1.7-1.2c0-1.7-4.4-0.7-4.4-3.3c0-1.1,1-2,2.6-2
				c1.2,0,2.1,0.5,2.6,1l-0.5,0.8c-0.4-0.5-1.2-0.9-2.1-0.9c-1,0-1.6,0.5-1.6,1.1c0,1.6,4.4,0.5,4.4,3.3c0,1.2-1,2.1-2.8,2.1
				C196.3,480.4,195.3,480,194.6,479.3z"/>
			<path class="st22" d="M201.5,471.4c0-0.4,0.3-0.7,0.7-0.7c0.4,0,0.7,0.3,0.7,0.7c0,0.4-0.3,0.7-0.7,0.7
				C201.8,472.1,201.5,471.8,201.5,471.4z M201.7,480.2v-7.1h1.1v7.1H201.7z"/>
			<path class="st22" d="M204.6,482l0.6-0.8c0.6,0.7,1.3,1,2.3,1c1.2,0,2.3-0.6,2.3-2.1v-1c-0.5,0.7-1.4,1.3-2.4,1.3
				c-1.8,0-3.1-1.4-3.1-3.7c0-2.3,1.3-3.7,3.1-3.7c1,0,1.8,0.5,2.4,1.2v-1.1h1.1v6.9c0,2.3-1.6,3.1-3.4,3.1
				C206.2,483.1,205.4,482.9,204.6,482z M209.7,478.2v-3.1c-0.4-0.6-1.2-1.1-2.1-1.1c-1.4,0-2.3,1.1-2.3,2.7c0,1.6,0.8,2.7,2.3,2.7
				C208.5,479.3,209.3,478.8,209.7,478.2z"/>
			<path class="st22" d="M217.4,480.2v-4.6c0-1.2-0.6-1.6-1.6-1.6c-0.9,0-1.7,0.5-2.1,1.1v5.2h-1.1v-7.1h1.1v1
				c0.5-0.6,1.5-1.2,2.5-1.2c1.5,0,2.3,0.7,2.3,2.3v5H217.4z"/>
			<path class="st22" d="M219.9,476.7c0-2.1,1.5-3.7,3.5-3.7c2.1,0,3.4,1.7,3.4,3.8v0.3h-5.7c0.1,1.3,1,2.4,2.5,2.4
				c0.8,0,1.6-0.3,2.2-0.9l0.5,0.7c-0.7,0.7-1.7,1.1-2.8,1.1C221.4,480.4,219.9,478.9,219.9,476.7z M223.4,473.9
				c-1.5,0-2.3,1.3-2.3,2.4h4.6C225.7,475.2,225,473.9,223.4,473.9z"/>
			<path class="st22" d="M233.4,480.2v-1.1c-0.5,0.7-1.4,1.2-2.4,1.2c-1.8,0-3.1-1.4-3.1-3.7c0-2.3,1.3-3.7,3.1-3.7
				c1,0,1.8,0.5,2.4,1.2v-3.8h1.1v9.8H233.4z M233.4,478.3v-3.2c-0.4-0.6-1.2-1.1-2.1-1.1c-1.4,0-2.3,1.2-2.3,2.7
				c0,1.6,0.8,2.7,2.3,2.7C232.1,479.4,233,478.9,233.4,478.3z"/>
			<path class="st22" d="M239.7,480.2v-9.8h1.1v3.8c0.6-0.8,1.4-1.2,2.4-1.2c1.8,0,3.1,1.5,3.1,3.7c0,2.3-1.3,3.7-3.1,3.7
				c-1,0-1.9-0.5-2.4-1.2v1.1H239.7z M242.9,479.4c1.4,0,2.3-1.2,2.3-2.7c0-1.6-0.8-2.7-2.3-2.7c-0.9,0-1.7,0.5-2.1,1.1v3.2
				C241.2,478.9,242,479.4,242.9,479.4z"/>
			<path class="st22" d="M247.5,482c0.2,0.1,0.4,0.1,0.6,0.1c0.5,0,0.8-0.2,1.1-0.7l0.5-1.1l-3-7.1h1.2l2.4,5.8l2.3-5.8h1.2
				l-3.5,8.5c-0.4,1-1.1,1.4-2.1,1.4c-0.2,0-0.6,0-0.8-0.1L247.5,482z"/>
		</g>
	</g>
</g>
</svg>
