<svg width="142" height="142" viewBox="0 0 142 142" fill="none" xmlns="http://www.w3.org/2000/svg">
<path d="M7.64 58.624C9.56 58.624 10.9893 58.4747 11.928 58.176C12.8667 57.8347 13.528 57.216 13.912 56.32C14.296 55.3813 14.488 53.9947 14.488 52.16V12.16H23.896V52.416C23.896 55.4453 23.5547 57.8987 22.872 59.776C22.1893 61.6107 20.9947 62.9973 19.288 63.936C17.5813 64.832 15.2133 65.28 12.184 65.28H7.64V58.624ZM42.403 64.576C38.435 64.576 35.4697 63.488 33.507 61.312C31.5443 59.0933 30.563 55.8933 30.563 51.712V39.296C30.563 35.1147 31.5443 31.936 33.507 29.76C35.4697 27.5413 38.435 26.432 42.403 26.432C46.371 26.432 49.3363 27.5413 51.299 29.76C53.3043 31.936 54.307 35.1147 54.307 39.296V51.712C54.307 55.8933 53.3043 59.0933 51.299 61.312C49.3363 63.488 46.371 64.576 42.403 64.576ZM42.467 58.56C43.7897 58.56 44.6643 58.048 45.091 57.024C45.5177 55.9573 45.731 54.4 45.731 52.352V38.72C45.731 36.672 45.5177 35.1147 45.091 34.048C44.6643 32.9813 43.7897 32.448 42.467 32.448C41.1017 32.448 40.2057 32.9813 39.779 34.048C39.3523 35.1147 39.139 36.672 39.139 38.72V52.352C39.139 54.4 39.3523 55.9573 39.779 57.024C40.2057 58.048 41.1017 58.56 42.467 58.56ZM76.264 64.576C73.832 64.576 71.4427 63.4667 69.096 61.248V64H60.456V12.16H69.096V29.824C71.4427 27.5627 73.96 26.432 76.648 26.432C79.6347 26.432 81.7467 27.6693 82.984 30.144C84.2213 32.6187 84.84 35.4987 84.84 38.784V51.328C84.84 55.296 84.136 58.496 82.728 60.928C81.3627 63.36 79.208 64.576 76.264 64.576ZM72.936 58.496C74.216 58.496 75.0693 57.8987 75.496 56.704C75.9227 55.5093 76.136 53.824 76.136 51.648V38.336C76.136 36.4587 75.9013 34.9867 75.432 33.92C74.9627 32.8107 74.1307 32.256 72.936 32.256C71.6987 32.256 70.4187 32.768 69.096 33.792V57.216C70.2907 58.0693 71.5707 58.496 72.936 58.496ZM100.876 64.576C97.7613 64.576 95.2013 63.744 93.196 62.08C91.1907 60.416 89.7613 57.984 88.908 54.784L95.372 52.288C96.3533 56.4267 98.1453 58.496 100.748 58.496C101.729 58.496 102.476 58.24 102.988 57.728C103.543 57.216 103.82 56.512 103.82 55.616C103.82 54.6347 103.521 53.7387 102.924 52.928C102.327 52.0747 101.26 51.008 99.724 49.728L95.308 45.888C93.4307 44.352 92.044 42.8587 91.148 41.408C90.252 39.9573 89.804 38.1867 89.804 36.096C89.804 33.1947 90.7853 30.8693 92.748 29.12C94.7533 27.328 97.2707 26.432 100.3 26.432C103.201 26.432 105.569 27.3067 107.404 29.056C109.239 30.7627 110.433 33.088 110.988 36.032L105.292 38.464C104.951 36.7573 104.375 35.3707 103.564 34.304C102.796 33.1947 101.793 32.64 100.556 32.64C99.66 32.64 98.9347 32.9173 98.38 33.472C97.868 34.0267 97.612 34.7307 97.612 35.584C97.612 36.2667 97.9107 36.992 98.508 37.76C99.1053 38.528 100.001 39.424 101.196 40.448L105.676 44.544C107.596 46.208 109.068 47.808 110.092 49.344C111.159 50.8373 111.692 52.6507 111.692 54.784C111.692 57.8987 110.668 60.3093 108.62 62.016C106.615 63.7227 104.033 64.576 100.876 64.576ZM11.544 74.16H15.064L31.576 114.416V74.16H35.8V126H32.344L15.768 85.296V126H11.544V74.16ZM44.73 74.16H63.482V77.936H49.658V97.392H60.922V100.976H49.658V122.352H63.61V126H44.73V74.16ZM76.694 77.936H66.902V74.16H91.094V77.936H81.558V126H76.694V77.936Z" fill="#487687"/>
<rect x="2" y="2" width="138" height="138" stroke="#487687" stroke-width="4"/>
</svg>
